{
    "asset": {
        "generator": "COLLADA2GLTF",
        "version": "2.0"
    },
    "scenes": [
        {
            "nodes": [
                0
            ]
        }
    ],
    "scene": 0,
    "nodes": [
        {
            "children": [
                1
            ],
            "matrix": [
                1.0,
                0.0,
                0.0,
                0.0,
                0.0,
                0.0,
                -1.0,
                0.0,
                0.0,
                1.0,
                0.0,
                0.0,
                0.0,
                0.0,
                0.0,
                1.0
            ],
            "name": "Z_UP"
        },
        {
            "mesh": 0,
            "children": [
                3,
                2
            ],
            "name": "SketchUp"
        },
        {
            "matrix": [
                0.9941022992134094,
                0.108446404337883,
                0.0,
                0.0,
                -0.00609763665124774,
                0.05589555948972702,
                0.9984179735183716,
                0.0,
                0.1082748994231224,
                -0.9925296306610109,
                0.05622716993093491,
                0.0,
                7.335753917694092,
                -0.9434001445770264,
                2.7840888500213625,
                1.0
            ],
            "camera": 0,
            "name": "skp_camera_Last_Saved_SketchUp_View"
        },
        {
            "mesh": 1
        }
    ],
    "cameras": [
        {
            "perspective": {
                "yfov": 0.6108646988868713,
                "zfar": 25.399999618530278,
                "znear": 0.02539999969303608
            },
            "type": "perspective",
            "name": "skp_camera_Last_Saved_SketchUp_View"
        }
    ],
    "meshes": [
        {
            "primitives": [
                {
                    "attributes": {
                        "NORMAL": 1,
                        "POSITION": 2
                    },
                    "indices": 0,
                    "mode": 4,
                    "material": 0
                },
                {
                    "attributes": {
                        "NORMAL": 4,
                        "POSITION": 5
                    },
                    "indices": 3,
                    "mode": 4,
                    "material": 1
                }
            ],
            "name": "ID3"
        },
        {
            "primitives": [
                {
                    "attributes": {
                        "NORMAL": 7,
                        "POSITION": 8
                    },
                    "indices": 6,
                    "mode": 4,
                    "material": 2
                }
            ],
            "name": "ID13"
        }
    ],
    "accessors": [
        {
            "bufferView": 0,
            "byteOffset": 0,
            "componentType": 5123,
            "count": 3,
            "max": [
                2
            ],
            "min": [
                0
            ],
            "type": "SCALAR"
        },
        {
            "bufferView": 1,
            "byteOffset": 0,
            "componentType": 5126,
            "count": 3,
            "max": [
                0.0,
                -1.0,
                0.0
            ],
            "min": [
                0.0,
                -1.0,
                0.0
            ],
            "type": "VEC3"
        },
        {
            "bufferView": 1,
            "byteOffset": 36,
            "componentType": 5126,
            "count": 3,
            "max": [
                7.3985724449157719,
                13.493709564208985,
                3.109950542449951
            ],
            "min": [
                4.7455735206604,
                13.493709564208985,
                0.7890257835388184
            ],
            "type": "VEC3"
        },
        {
            "bufferView": 0,
            "byteOffset": 6,
            "componentType": 5123,
            "count": 39,
            "max": [
                20
            ],
            "min": [
                0
            ],
            "type": "SCALAR"
        },
        {
            "bufferView": 1,
            "byteOffset": 72,
            "componentType": 5126,
            "count": 21,
            "max": [
                1.0,
                1.0,
                0.8892422318458557
            ],
            "min": [
                -0.45743659138679507,
                0.0,
                -0.9407616853713988
            ],
            "type": "VEC3"
        },
        {
            "bufferView": 1,
            "byteOffset": 324,
            "componentType": 5126,
            "count": 21,
            "max": [
                7.3985724449157719,
                14.501771926879885,
                3.109950542449951
            ],
            "min": [
                4.7455735206604,
                13.493709564208985,
                0.7890257835388184
            ],
            "type": "VEC3"
        },
        {
            "bufferView": 0,
            "byteOffset": 84,
            "componentType": 5123,
            "count": 1284,
            "max": [
                431
            ],
            "min": [
                0
            ],
            "type": "SCALAR"
        },
        {
            "bufferView": 1,
            "byteOffset": 576,
            "componentType": 5126,
            "count": 432,
            "max": [
                1.0,
                1.0,
                0.9993953108787536
            ],
            "min": [
                -1.0,
                -1.0,
                -0.9993953108787536
            ],
            "type": "VEC3"
        },
        {
            "bufferView": 1,
            "byteOffset": 5760,
            "componentType": 5126,
            "count": 432,
            "max": [
                8.904353141784668,
                14.501771926879885,
                3.871912479400635
            ],
            "min": [
                2.4374115467071539,
                13.860422134399414,
                4.51194631754889e-17
            ],
            "type": "VEC3"
        }
    ],
    "materials": [
        {
            "pbrMetallicRoughness": {
                "baseColorFactor": [
                    1.0,
                    1.0,
                    1.0,
                    1.0
                ],
                "metallicFactor": 0.0
            },
            "name": "ID4"
        },
        {
            "pbrMetallicRoughness": {
                "baseColorFactor": [
                    1.0,
                    0.0,
                    0.0,
                    1.0
                ],
                "metallicFactor": 0.0
            },
            "name": "ID10"
        },
        {
            "pbrMetallicRoughness": {
                "baseColorFactor": [
                    1.0,
                    0.0,
                    0.0,
                    1.0
                ],
                "metallicFactor": 0.0
            },
            "name": "ID10"
        }
    ],
    "bufferViews": [
        {
            "buffer": 0,
            "byteOffset": 10944,
            "byteLength": 2652,
            "target": 34963
        },
        {
            "buffer": 0,
            "byteOffset": 0,
            "byteLength": 10944,
            "byteStride": 12,
            "target": 34962
        }
    ],
    "buffers": [
        {
            "byteLength": 13596,
            "uri": "data:application/octet-stream;base64,"
        }
    ]
}
