{
  "asset": {
    "version": "2.0",
    "generator": "THREE.GLTFExporter"
  },
  "scenes": [
    {
      "nodes": [
        3
      ],
      "name": "Scene"
    }
  ],
  "scene": 0,
  "nodes": [
    {
      "matrix": [
        100,
        0,
        0,
        0,
        0,
        100,
        0,
        0,
        0,
        0,
        109.48,
        0,
        0,
        4.78,
        -0.483,
        1
      ],
      "name": "BezierCurve001",
      "mesh": 0
    },
    {
      "matrix": [
        100,
        0,
        0,
        0,
        0,
        100,
        0,
        0,
        0,
        0,
        100,
        0,
        -0.585643291473389,
        3.949,
        -0.582528471946716,
        1
      ],
      "name": "BezierCurve",
      "mesh": 1
    },
    {
      "name": "RootNode",
      "children": [
        0,
        1
      ]
    },
    {
      "matrix": [
        0.2,
        0,
        0,
        0,
        0,
        0.2,
        0,
        0,
        0,
        0,
        0.2,
        0,
        0,
        0,
        0,
        1
      ],
      "name": "play.glb",
      "children": [
        2
      ]
    }
  ],
  "bufferViews": [
    {
      "buffer": 0,
      "byteOffset": 0,
      "byteLength": 216,
      "target": 34962,
      "byteStride": 12
    },
    {
      "buffer": 0,
      "byteOffset": 216,
      "byteLength": 216,
      "target": 34962,
      "byteStride": 12
    },
    {
      "buffer": 0,
      "byteOffset": 432,
      "byteLength": 48,
      "target": 34963
    },
    {
      "buffer": 0,
      "byteOffset": 480,
      "byteLength": 19368,
      "target": 34962,
      "byteStride": 12
    },
    {
      "buffer": 0,
      "byteOffset": 19848,
      "byteLength": 19368,
      "target": 34962,
      "byteStride": 12
    },
    {
      "buffer": 0,
      "byteOffset": 39216,
      "byteLength": 9480,
      "target": 34963
    }
  ],
  "buffers": [
    {
      "byteLength": 48696,
      "uri": "data:application/octet-stream;base64,"
    }
  ],
  "accessors": [
    {
      "bufferView": 0,
      "componentType": 5126,
      "count": 18,
      "max": [
        0.46291255950927734,
        0.8864039778709412,
        1
      ],
      "min": [
        -0.9999975562095642,
        -0.8884509801864624,
        -1
      ],
      "type": "VEC3"
    },
    {
      "bufferView": 1,
      "componentType": 5126,
      "count": 18,
      "max": [
        0.01697034202516079,
        0.00009614229202270508,
        0.00999000109732151
      ],
      "min": [
        -0.01006176695227623,
        -0.02795347571372986,
        -0.00999000109732151
      ],
      "type": "VEC3"
    },
    {
      "bufferView": 2,
      "componentType": 5123,
      "count": 24,
      "max": [
        17
      ],
      "min": [
        0
      ],
      "type": "SCALAR"
    },
    {
      "bufferView": 3,
      "componentType": 5126,
      "count": 1614,
      "max": [
        0.9999939203262329,
        0.999998927116394,
        1
      ],
      "min": [
        -0.9999994039535522,
        -0.9999970197677612,
        -1
      ],
      "type": "VEC3"
    },
    {
      "bufferView": 4,
      "componentType": 5126,
      "count": 1614,
      "max": [
        0.05678151175379753,
        0.030200084671378136,
        0.009879999794065952
      ],
      "min": [
        -0.045121319591999054,
        -0.041958559304475784,
        -0.009879999794065952
      ],
      "type": "VEC3"
    },
    {
      "bufferView": 5,
      "componentType": 5123,
      "count": 4740,
      "max": [
        1613
      ],
      "min": [
        0
      ],
      "type": "SCALAR"
    }
  ],
  "materials": [
    {
      "pbrMetallicRoughness": {
        "metallicFactor": 0.400000005960464,
        "roughnessFactor": 0.21976226568222
      },
      "emissiveFactor": [
        1,
        1,
        1
      ],
      "name": "Material.001",
      "extras": {
        "fromFBX": {
          "shadingModel": "Phong",
          "isTruePBR": false
        }
      }
    },
    {
      "pbrMetallicRoughness": {
        "baseColorFactor": [
          0.9098039215686274,
          0.0392156862745098,
          0.01568627450980392,
          1
        ],
        "metallicFactor": 0.400000005960464,
        "roughnessFactor": 0.415087103843689
      },
      "emissiveFactor": [
        0.6666666666666666,
        0.023529411764705882,
        0.00784313725490196
      ],
      "name": "Button",
      "extras": {
        "fromFBX": {
          "shadingModel": "Phong",
          "isTruePBR": false
        }
      }
    }
  ],
  "meshes": [
    {
      "primitives": [
        {
          "mode": 4,
          "attributes": {
            "NORMAL": 0,
            "POSITION": 1
          },
          "indices": 2,
          "material": 0
        }
      ]
    },
    {
      "primitives": [
        {
          "mode": 4,
          "attributes": {
            "NORMAL": 3,
            "POSITION": 4
          },
          "indices": 5,
          "material": 1
        }
      ]
    }
  ]
}
