{
  "accessors": [
    {
      "bufferView": 1,
      "componentType": 5126,
      "count": 740,
      "max": [
        37.090267181396484,
        41.197261810302734,
        15.379600524902344
      ],
      "min": [
        29.989740371704102,
        34.096736907958984,
        9.2848300933837891
      ],
      "type": "VEC3"
    },
    {
      "bufferView": 1,
      "byteOffset": 8880,
      "componentType": 5126,
      "count": 740,
      "max": [
        0.70794087648391724,
        0.70717960596084595,
        1
      ],
      "min": [
        -0.70712864398956299,
        -0.70713037252426147,
        -1
      ],
      "type": "VEC3"
    },
    {
      "bufferView": 0,
      "componentType": 5125,
      "count": 1524,
      "max": [
        739
      ],
      "min": [
        0
      ],
      "type": "SCALAR"
    },
    {
      "bufferView": 1,
      "byteOffset": 17760,
      "componentType": 5126,
      "count": 306,
      "max": [
        41.445987701416016,
        34.319156646728516,
        14.418893814086914
      ],
      "min": [
        36.867847442626953,
        29.741012573242188,
        10.429352760314941
      ],
      "type": "VEC3"
    },
    {
      "bufferView": 1,
      "byteOffset": 21432,
      "componentType": 5126,
      "count": 306,
      "max": [
        0.70711261034011841,
        0.70711255073547363,
        1
      ],
      "min": [
        -0.70711052417755127,
        -0.70710992813110352,
        -1
      ],
      "type": "VEC3"
    },
    {
      "bufferView": 0,
      "byteOffset": 6096,
      "componentType": 5125,
      "count": 588,
      "max": [
        305
      ],
      "min": [
        0
      ],
      "type": "SCALAR"
    }
  ],
  "asset": {
    "extras": {
      "author": "Meneer-Badger (https://sketchfab.com/meneer-badger)",
      "license": "CC-BY-4.0 (http://creativecommons.org/licenses/by/4.0/)",
      "source": "https://sketchfab.com/models/2e8d6f31a76c4002945c1984211a7b18",
      "title": "logo youtube"
    },
    "generator": "Sketchfab-3.20.5",
    "version": "2.0"
  },
  "bufferViews": [
    {
      "buffer": 0,
      "byteLength": 8448,
      "byteOffset": 0,
      "name": "floatBufferViews",
      "target": 34963
    },
    {
      "buffer": 0,
      "byteLength": 25104,
      "byteOffset": 8448,
      "byteStride": 12,
      "name": "floatBufferViews",
      "target": 34962
    }
  ],
  "buffers": [
    {
      "byteLength": 33552,
      "uri": "scene.bin"
    }
  ],
  "materials": [
    {
      "doubleSided": true,
      "emissiveFactor": [
        0,
        0,
        0
      ],
      "name": "02_-_Default",
      "pbrMetallicRoughness": {
        "baseColorFactor": [
          1,
          0,
          0,
          1
        ],
        "metallicFactor": 0,
        "roughnessFactor": 0.59999999999999998
      }
    },
    {
      "doubleSided": true,
      "emissiveFactor": [
        0,
        0,
        0
      ],
      "name": "13_-_Default",
      "pbrMetallicRoughness": {
        "baseColorFactor": [
          1,
          1,
          1,
          1
        ],
        "metallicFactor": 0,
        "roughnessFactor": 0.59999999999999998
      }
    }
  ],
  "meshes": [
    {
      "name": "Line048_02 - Default_0",
      "primitives": [
        {
          "attributes": {
            "NORMAL": 1,
            "POSITION": 0
          },
          "indices": 2,
          "material": 0,
          "mode": 4
        }
      ]
    },
    {
      "name": "Line048_13 - Default_0",
      "primitives": [
        {
          "attributes": {
            "NORMAL": 4,
            "POSITION": 3
          },
          "indices": 5,
          "material": 1,
          "mode": 4
        }
      ]
    }
  ],
  "nodes": [
    {
      "children": [
        1
      ],
      "name": "RootNode (gltf orientation matrix)",
      "rotation": [
        -0.70710678118654746,
        -0,
        -0,
        0.70710678118654757
      ]
    },
    {
      "children": [
        2
      ],
      "matrix": [
        1,
        0,
        0,
        0,
        0,
        -1,
        0,
        0,
        0,
        0,
        -1,
        0,
        0,
        0,
        0,
        1
      ],
      "name": "RootNode (model correction matrix)"
    },
    {
      "children": [
        3
      ],
      "matrix": [
        1,
        0,
        0,
        0,
        0,
        -1,
        0,
        0,
        0,
        0,
        -1,
        0,
        0,
        0,
        0,
        1
      ],
      "name": "b40c6e0ab1c049a39fa32c34ff02bd40.FBX"
    },
    {
      "children": [
        4
      ],
      "name": "RootNode"
    },
    {
      "children": [
        5
      ],
      "matrix": [
        -0.70710678118654746,
        -0.70710678118654768,
        0,
        0,
        0.70710678118654768,
        -0.70710678118654746,
        0,
        0,
        0,
        0,
        1,
        0,
        0,
        0,
        0,
        1
      ],
      "name": "Line048"
    },
    {
      "children": [
        6,
        7
      ],
      "matrix": [
        1,
        0,
        -0,
        0,
        0,
        1,
        0,
        0,
        0,
        0,
        1,
        0,
        -35.717864990234375,
        -35.469139099121094,
        0,
        1
      ],
      "name": ""
    },
    {
      "mesh": 0,
      "name": "Line048_02 - Default_0"
    },
    {
      "mesh": 1,
      "name": "Line048_13 - Default_0"
    }
  ],
  "scene": 0,
  "scenes": [
    {
      "name": "OSG_Scene",
      "nodes": [
        0
      ]
    }
  ]
}

